<?xml version="1.0" encoding="UTF-8"?>
<svg id="Layer_2" xmlns="http://www.w3.org/2000/svg" xmlns:xlink="http://www.w3.org/1999/xlink" viewBox="0 0 112.1 112.1">
  <defs>
    <style>
      .cls-1 {
        fill: #f9f6ea;
      }

      .cls-2 {
        fill: none;
      }

      .cls-3 {
        fill: #50705b;
      }

      .cls-4 {
        clip-path: url(#clippath-1);
      }

      .cls-5 {
        opacity: .2;
      }

      .cls-6 {
        clip-path: url(#clippath);
      }
    </style>
    <clipPath id="clippath">
      <rect class="cls-2" width="112.1" height="112.1"/>
    </clipPath>
    <clipPath id="clippath-1">
      <rect class="cls-2" width="112.1" height="112.1"/>
    </clipPath>
  </defs>
  <g id="Layer_1-2" data-name="Layer_1">
    <g class="cls-6">
      <g>
        <rect class="cls-3" width="112.1" height="112.1"/>
        <g class="cls-5">
          <g class="cls-4">
            <g>
              <g>
                <path class="cls-1" d="M95.58,95.74H16.29c-.07,0-.12-.06-.12-.12V16.32c0-.07.06-.12.12-.12h79.29c.07,0,.12.06.12.12v79.29c0,.07-.06.12-.12.12ZM16.42,95.49h79.04V16.44H16.42v79.04Z"/>
                <path class="cls-1" d="M55.94,112.16s-.06-.01-.09-.04L-.22,56.05s-.05-.13,0-.18L55.85-.19s.13-.05.18,0l56.07,56.07s.04.06.04.09-.01.06-.04.09l-56.07,56.07s-.06.04-.09.04ZM.05,55.97l55.89,55.89,55.89-55.89L55.94.07.05,55.97Z"/>
                <g>
                  <path class="cls-1" d="M73.3,73.45h-10.19c-.07,0-.12-.06-.12-.12s.06-.12.12-.12h10.06v-10.06c0-.07.06-.12.12-.12s.12.06.12.12v10.19c0,.07-.06.12-.12.12Z"/>
                  <path class="cls-1" d="M38.57,48.91c-.07,0-.12-.06-.12-.12v-10.19c0-.07.06-.12.12-.12h10.19c.07,0,.12.06.12.12s-.06.12-.12.12h-10.06v10.06c0,.07-.06.12-.12.12Z"/>
                  <path class="cls-1" d="M73.3,48.91c-.07,0-.12-.06-.12-.12v-10.06h-10.06c-.07,0-.12-.06-.12-.12s.06-.12.12-.12h10.19c.07,0,.12.06.12.12v10.19c0,.07-.06.12-.12.12Z"/>
                  <path class="cls-1" d="M48.76,73.45h-10.19c-.07,0-.12-.06-.12-.12v-10.19c0-.07.06-.12.12-.12s.12.06.12.12v10.06h10.06c.07,0,.12.06.12.12s-.06.12-.12.12Z"/>
                  <path class="cls-1" d="M55.94,80.63s-.06-.01-.09-.04l-7.18-7.18s-.05-.13,0-.18.13-.05.18,0l7.09,7.09,7.09-7.09s.13-.05.18,0,.05.13,0,.18l-7.18,7.18s-.06.04-.09.04Z"/>
                  <path class="cls-1" d="M48.76,38.72s-.06-.01-.09-.04c-.05-.05-.05-.13,0-.18l7.18-7.18s.13-.05.18,0l7.18,7.18s.05.13,0,.18-.13.05-.18,0l-7.09-7.09-7.09,7.09s-.06.04-.09.04Z"/>
                  <path class="cls-1" d="M73.3,63.27s-.06-.01-.09-.04c-.05-.05-.05-.13,0-.18l7.09-7.09-7.09-7.09s-.05-.13,0-.18.13-.05.18,0l7.18,7.18s.05.13,0,.18l-7.18,7.18s-.06.04-.09.04Z"/>
                  <path class="cls-1" d="M38.57,63.27s-.06-.01-.09-.04l-7.18-7.18s-.05-.13,0-.18l7.18-7.18s.13-.05.18,0,.05.13,0,.18l-7.09,7.09,7.09,7.09s.05.13,0,.18c-.02.02-.06.04-.09.04Z"/>
                </g>
                <path class="cls-1" d="M55.94,31.55c-.07,0-.12-.06-.12-.12v-15.1c0-.07.06-.12.12-.12s.12.06.12.12v15.1c0,.07-.06.12-.12.12Z"/>
                <path class="cls-1" d="M16.29,16.44s-.06-.01-.09-.04L-16.44-16.24s-.05-.13,0-.18.13-.05.18,0L16.38,16.23s.05.13,0,.18c-.02.02-.06.04-.09.04Z"/>
                <path class="cls-1" d="M38.57,38.72s-.06-.01-.09-.04l-10.67-10.67s-.05-.13,0-.18.13-.05.18,0l10.67,10.67s.05.13,0,.18c-.02.02-.06.04-.09.04Z"/>
                <path class="cls-1" d="M16.29,56.09c-.07,0-.12-.06-.12-.12s.06-.12.12-.12h15.1c.07,0,.12.05.12.12s-.06.12-.12.12h-15.1Z"/>
                <path class="cls-1" d="M27.9,84.12s-.06-.01-.09-.04c-.05-.05-.05-.13,0-.18l10.67-10.67s.13-.05.18,0,.05.13,0,.18l-10.67,10.67s-.06.04-.09.04Z"/>
                <path class="cls-1" d="M55.94,95.74c-.07,0-.12-.06-.12-.12v-15.1c0-.07.06-.12.12-.12s.12.06.12.12v15.1c0,.07-.06.12-.12.12Z"/>
                <path class="cls-1" d="M83.97,84.12s-.06-.01-.09-.04l-10.67-10.67s-.05-.13,0-.18.13-.05.18,0l10.67,10.67s.05.13,0,.18c-.02.02-.06.04-.09.04Z"/>
                <path class="cls-1" d="M95.58,56.09h-15.1c-.07,0-.12-.06-.12-.13s.06-.12.12-.12h15.1c.07,0,.12.06.12.13s-.06.12-.12.12Z"/>
                <path class="cls-1" d="M95.58,16.44s-.06-.01-.09-.04c-.05-.05-.05-.13,0-.18l32.65-32.65s.13-.05.18,0,.05.13,0,.18l-32.65,32.65s-.06.04-.09.04Z"/>
                <path class="cls-1" d="M73.3,38.72s-.06-.01-.09-.04c-.05-.05-.05-.13,0-.18l10.67-10.67s.13-.05.18,0,.05.13,0,.18l-10.67,10.67s-.06.04-.09.04Z"/>
                <path class="cls-1" d="M112.01,111.92c-.07,0-.12-.06-.12-.12V.26H.11C.04.26-.02.2-.02.13S.04,0,.11,0h111.9c.07,0,.12.06.12.12v111.66c0,.07-.06.12-.12.12Z"/>
              </g>
              <g>
                <path class="cls-1" d="M-55.97,112.15s-.06-.01-.09-.04l-56.07-56.07s-.05-.13,0-.18L-56.06-.2s.13-.05.18,0L.18,55.87s.04.06.04.09-.01.06-.04.09l-56.07,56.07s-.06.04-.09.04ZM-111.86,55.96l55.89,55.89L-.08,55.96-55.97.06l-55.89,55.89Z"/>
                <path class="cls-1" d="M-16.33,16.43s-.06-.01-.09-.04c-.05-.05-.05-.13,0-.18L16.23-16.43s.13-.05.18,0,.05.13,0,.18L-16.24,16.4s-.06.04-.09.04Z"/>
                <path class="cls-1" d="M.1,111.91c-.07,0-.12-.06-.12-.12V.25h-111.77c-.07,0-.12-.06-.12-.12S-111.87,0-111.8,0H.1C.17,0,.22.06.22.12v111.66c0,.07-.06.12-.12.12Z"/>
              </g>
              <g>
                <path class="cls-1" d="M55.94,224s-.06-.01-.09-.04L-.21,167.89s-.05-.13,0-.18l56.07-56.07s.13-.05.18,0l56.07,56.07s.05.13,0,.18l-56.07,56.07s-.06.04-.09.04ZM.05,167.8l55.89,55.89,55.89-55.89-55.89-55.89L.05,167.8Z"/>
                <path class="cls-1" d="M16.3,128.28s-.06-.01-.09-.04l-32.65-32.65s-.05-.13,0-.18.13-.05.18,0l32.65,32.65s.05.13,0,.18c-.02.02-.06.04-.09.04Z"/>
                <path class="cls-1" d="M95.59,128.28s-.06-.01-.09-.04c-.05-.05-.05-.13,0-.18l32.65-32.65s.13-.05.18,0,.05.13,0,.18l-32.65,32.65s-.06.04-.09.04Z"/>
                <path class="cls-1" d="M112.01,223.76c-.07,0-.12-.06-.12-.12v-111.54H.11c-.07,0-.12-.06-.12-.12s.06-.12.12-.12h111.9c.07,0,.12.06.12.12v111.66c0,.07-.06.12-.12.12Z"/>
              </g>
            </g>
          </g>
        </g>
      </g>
    </g>
  </g>
</svg>